<svg width="16" height="17" viewBox="0 0 16 17" fill="none" xmlns="http://www.w3.org/2000/svg">
<path d="M12.6667 15.6667C12.3933 15.6667 12.1667 15.44 12.1667 15.1667V7.83334C12.1667 7.56001 12.3933 7.33334 12.6667 7.33334C12.94 7.33334 13.1667 7.56001 13.1667 7.83334V15.1667C13.1667 15.44 12.94 15.6667 12.6667 15.6667ZM12.6667 5.66668C12.3933 5.66668 12.1667 5.44001 12.1667 5.16668V1.83334C12.1667 1.56001 12.3933 1.33334 12.6667 1.33334C12.94 1.33334 13.1667 1.56001 13.1667 1.83334V5.16668C13.1667 5.44001 12.94 5.66668 12.6667 5.66668ZM7.99999 15.6667C7.72666 15.6667 7.49999 15.44 7.49999 15.1667V11.8333C7.49999 11.56 7.72666 11.3333 7.99999 11.3333C8.27333 11.3333 8.49999 11.56 8.49999 11.8333V15.1667C8.49999 15.44 8.27333 15.6667 7.99999 15.6667ZM7.99999 9.66668C7.72666 9.66668 7.49999 9.44001 7.49999 9.16668V1.83334C7.49999 1.56001 7.72666 1.33334 7.99999 1.33334C8.27333 1.33334 8.49999 1.56001 8.49999 1.83334V9.16668C8.49999 9.44001 8.27333 9.66668 7.99999 9.66668ZM3.33333 15.6667C3.05999 15.6667 2.83333 15.44 2.83333 15.1667V7.83334C2.83333 7.56001 3.05999 7.33334 3.33333 7.33334C3.60666 7.33334 3.83333 7.56001 3.83333 7.83334V15.1667C3.83333 15.44 3.60666 15.6667 3.33333 15.6667ZM3.33333 5.66668C3.05999 5.66668 2.83333 5.44001 2.83333 5.16668V1.83334C2.83333 1.56001 3.05999 1.33334 3.33333 1.33334C3.60666 1.33334 3.83333 1.56001 3.83333 1.83334V5.16668C3.83333 5.44001 3.60666 5.66668 3.33333 5.66668Z" fill="#303030"/>
<path d="M4.66667 8.33334H2C1.72667 8.33334 1.5 8.10668 1.5 7.83334C1.5 7.56001 1.72667 7.33334 2 7.33334H4.66667C4.94 7.33334 5.16667 7.56001 5.16667 7.83334C5.16667 8.10668 4.94 8.33334 4.66667 8.33334ZM14 8.33334H11.3333C11.06 8.33334 10.8333 8.10668 10.8333 7.83334C10.8333 7.56001 11.06 7.33334 11.3333 7.33334H14C14.2733 7.33334 14.5 7.56001 14.5 7.83334C14.5 8.10668 14.2733 8.33334 14 8.33334ZM9.33333 9.66668H6.66667C6.39333 9.66668 6.16667 9.44001 6.16667 9.16668C6.16667 8.89334 6.39333 8.66668 6.66667 8.66668H9.33333C9.60667 8.66668 9.83333 8.89334 9.83333 9.16668C9.83333 9.44001 9.60667 9.66668 9.33333 9.66668Z" fill="#303030"/>
</svg>
