<svg width="16" height="16" viewBox="0 0 16 16" fill="none" xmlns="http://www.w3.org/2000/svg">
<path d="M14.4533 11.3067L12.3667 6.43334C11.66 4.78 10.36 4.71334 9.48666 6.28667L8.22666 8.56C7.58666 9.71334 6.39332 9.81334 5.56666 8.78L5.41999 8.59334C4.55999 7.51334 3.34666 7.64667 2.72666 8.88L1.57999 11.18C0.773325 12.78 1.93999 14.6667 3.72666 14.6667H12.2333C13.9667 14.6667 15.1333 12.9 14.4533 11.3067ZM4.64666 5.33334C5.17709 5.33334 5.6858 5.12262 6.06087 4.74755C6.43594 4.37248 6.64666 3.86377 6.64666 3.33334C6.64666 2.8029 6.43594 2.2942 6.06087 1.91912C5.6858 1.54405 5.17709 1.33334 4.64666 1.33334C4.11622 1.33334 3.60752 1.54405 3.23244 1.91912C2.85737 2.2942 2.64666 2.8029 2.64666 3.33334C2.64666 3.86377 2.85737 4.37248 3.23244 4.74755C3.60752 5.12262 4.11622 5.33334 4.64666 5.33334Z" stroke="#626262" stroke-linecap="round" stroke-linejoin="round"/>
</svg>
