<svg width="27" height="30" viewBox="0 0 27 30" fill="none" xmlns="http://www.w3.org/2000/svg">
<path fill-rule="evenodd" clip-rule="evenodd" d="M14.0429 0.476216C13.684 0.402419 13.314 0.402419 12.9551 0.476216C12.5404 0.561522 12.1696 0.769165 11.8749 0.934244L11.7946 0.979122L1.80569 6.52851C1.77808 6.54385 1.74962 6.55952 1.72046 6.57558C1.40847 6.74743 1.01618 6.9635 0.714928 7.2904C0.454472 7.57303 0.257366 7.90802 0.136791 8.27295C-0.00267128 8.69506 -0.0010396 9.14291 0.000258014 9.49909C0.000379315 9.53238 0.000497631 9.56487 0.000497631 9.59646V20.5533C0.000497631 20.5849 0.000379315 20.6174 0.000258014 20.6507C-0.0010396 21.0069 -0.00267128 21.4547 0.136792 21.8768C0.257367 22.2418 0.454474 22.5768 0.714928 22.8594C1.01618 23.1863 1.40847 23.4024 1.72046 23.5742C1.74962 23.5903 1.77808 23.6059 1.80569 23.6213L11.7946 29.1707L11.8749 29.2156C12.1697 29.3806 12.5404 29.5883 12.9551 29.6736C13.314 29.7474 13.684 29.7474 14.0429 29.6736C14.4576 29.5883 14.8284 29.3806 15.1231 29.2156L15.2034 29.1707L25.1923 23.6213C25.2045 23.6145 25.2169 23.6077 25.2294 23.6007C25.2452 23.592 25.2613 23.5832 25.2775 23.5742C25.5895 23.4024 25.9818 23.1863 26.2831 22.8594C26.5435 22.5768 26.7406 22.2418 26.8612 21.8768C27.0007 21.4547 26.999 21.0069 26.9977 20.6507C26.9976 20.6174 26.9975 20.5849 26.9975 20.5533V9.59646C26.9975 9.56487 26.9976 9.53238 26.9977 9.4991C26.999 9.14291 27.0007 8.69506 26.8612 8.27295C26.7406 7.90802 26.5435 7.57303 26.2831 7.2904C25.9818 6.96349 25.5895 6.74742 25.2775 6.57558L25.2764 6.57497C25.2477 6.55912 25.2196 6.54365 25.1923 6.52851L15.2034 0.979121L15.1231 0.93424C14.8284 0.769162 14.4576 0.561521 14.0429 0.476216ZM13.1057 3.33908C13.3102 3.22544 13.4147 3.16802 13.4926 3.13045L13.499 3.12736L13.5055 3.13045C13.5834 3.16802 13.6878 3.22544 13.8923 3.33908L22.8681 8.32561L13.499 13.5307L4.12988 8.32564L13.1057 3.33908ZM2.7002 10.6197L12.1491 15.8691L12.1491 26.2793L3.11678 21.2613C2.90087 21.1414 2.79063 21.0795 2.71329 21.0302L2.70676 21.026L2.70627 21.0183C2.70076 20.9268 2.7002 20.8003 2.7002 20.5533V10.6197Z" fill="#17181A"/>
</svg>
